<?xml version="1.0" standalone="no"?>
<!DOCTYPE svg PUBLIC "-//W3C//DTD SVG 20010904//EN"
 "http://www.w3.org/TR/2001/REC-SVG-20010904/DTD/svg10.dtd">
<svg version="1.0" xmlns="http://www.w3.org/2000/svg"
 width="512.000000pt" height="512.000000pt" viewBox="0 0 512.000000 512.000000"
 preserveAspectRatio="xMidYMid meet">
<g transform="translate(0.000000,512.000000) scale(0.100000,-0.100000)"
fill="#000000" stroke="none">
<path d="M2185 4554 c-179 -27 -377 -105 -537 -210 -97 -64 -292 -260 -354
-355 -27 -41 -67 -112 -88 -156 l-40 -82 -65 -16 c-76 -19 -228 -88 -298 -136
-69 -47 -198 -174 -249 -245 -62 -86 -129 -234 -156 -340 -18 -72 -22 -117
-22 -234 0 -174 21 -274 88 -416 56 -117 93 -171 178 -260 l69 -71 -237 -634
c-130 -349 -242 -651 -250 -671 l-13 -37 112 40 c62 22 429 153 817 293 l705
253 45 -51 c230 -260 547 -406 880 -406 296 0 601 125 807 330 65 64 73 69
134 80 562 98 1000 522 1121 1083 31 146 31 408 0 554 -112 521 -503 930
-1011 1059 -53 14 -149 30 -213 36 l-118 12 -56 72 c-72 95 -221 236 -312 297
-276 184 -614 261 -937 211z m394 -30 c117 -17 274 -65 373 -115 196 -97 386
-267 515 -458 2 -3 60 -10 131 -18 348 -35 620 -167 857 -414 183 -190 300
-415 352 -677 24 -120 24 -384 0 -504 -53 -265 -170 -489 -356 -681 -202 -208
-434 -337 -702 -389 l-114 -22 -85 -81 c-299 -284 -702 -383 -1099 -269 -191
55 -359 160 -513 322 l-87 92 -83 -30 c-606 -219 -1503 -539 -1504 -537 -1 1
105 290 237 642 131 352 239 645 239 650 0 6 -27 37 -61 70 -119 117 -212 285
-256 463 -23 93 -23 331 0 424 46 186 139 349 269 474 126 121 244 190 410
238 l82 23 51 100 c259 505 787 779 1344 697z"/>
</g>
</svg>
